<svg width="50" height="50" viewBox="0 0 50 50" fill="none" xmlns="http://www.w3.org/2000/svg">
<rect width="50" height="50" rx="3" fill="white" fill-opacity="0.05"/>
<g clip-path="url(#clip0_662_440)">
<path d="M15.8333 18.3333V23.3333H20.8333" stroke="white" stroke-width="2" stroke-linecap="round" stroke-linejoin="round"/>
<path d="M34.1667 31.6665V26.6665H29.1667" stroke="white" stroke-width="2" stroke-linecap="round" stroke-linejoin="round"/>
<path d="M32.0749 22.5C31.6523 21.3056 30.934 20.2378 29.987 19.3962C29.0401 18.5545 27.8954 17.9665 26.6597 17.6869C25.424 17.4073 24.1376 17.4453 22.9206 17.7973C21.7036 18.1493 20.5955 18.8039 19.6999 19.7L15.8333 23.3333M34.1666 26.6666L30.2999 30.3C29.4043 31.1961 28.2963 31.8506 27.0792 32.2027C25.8622 32.5547 24.5758 32.5927 23.3402 32.3131C22.1045 32.0335 20.9598 31.4455 20.0128 30.6038C19.0659 29.7621 18.3476 28.6943 17.9249 27.5" stroke="white" stroke-width="2" stroke-linecap="round" stroke-linejoin="round"/>
</g>
<defs>
<clipPath id="clip0_662_440">
<rect width="20" height="20" fill="white" transform="translate(15 15)"/>
</clipPath>
</defs>
</svg>
