<svg width="70" height="70" viewBox="0 0 70 70" fill="none" xmlns="http://www.w3.org/2000/svg">
<rect width="70" height="70" rx="3" fill="white" fill-opacity="0.05"/>
<path d="M45 46.25V43.75C45 42.4239 44.4732 41.1521 43.5355 40.2145C42.5979 39.2768 41.3261 38.75 40 38.75H30C28.6739 38.75 27.4021 39.2768 26.4645 40.2145C25.5268 41.1521 25 42.4239 25 43.75V46.25" stroke="white" stroke-width="2" stroke-linecap="round" stroke-linejoin="round"/>
<path d="M35 33.75C37.7614 33.75 40 31.5114 40 28.75C40 25.9886 37.7614 23.75 35 23.75C32.2386 23.75 30 25.9886 30 28.75C30 31.5114 32.2386 33.75 35 33.75Z" stroke="white" stroke-width="2" stroke-linecap="round" stroke-linejoin="round"/>
</svg>
